<svg width="91.0007" height="73" viewBox="0 0 91.0007 73" fill="none" xmlns="http://www.w3.org/2000/svg">
<g id="&#236;&#134;&#144;" clip-path="url(#clip0_0_5360)">
<path id="Vector_5" d="M25.668 13.5643C25.3034 13.4367 24.6419 13.3039 24.2602 13.3629C22.5284 13.5542 20.9056 14.7893 20.6353 16.6245C20.5325 17.3225 20.5532 18.0306 20.5529 18.735L20.5524 21.4823L20.5624 30.9414C18.2617 31.2057 16.9126 31.6515 15.3447 33.5451C13.5288 35.7383 13.9814 38.4009 13.941 41.0525L13.9408 41.0607C13.921 42.3567 13.8996 43.7581 13.9585 45.0289C15.1178 46.4753 16.2632 47.9333 17.3946 49.4027C17.9851 50.1637 18.6391 50.959 19.1975 51.7343C19.2008 52.4352 19.1792 53.2624 19.2175 53.9477L38.4679 53.9409L39.0416 53.9445C39.0325 53.2074 39.0331 52.4704 39.0431 51.7335C39.7723 50.6708 42.3924 47.2866 43.0102 46.2149C43.1046 46.0511 43.06 42.2695 43.06 41.7101L43.0598 31.2594C42.2887 31.1508 41.067 30.703 40.264 30.4948C39.8004 30.3745 36.3324 29.4319 35.9346 29.279C35.4214 29.166 31.2957 28.1045 30.8444 27.9C30.5448 27.8163 28.6941 27.3684 28.5263 27.2119C28.4151 27.1082 28.443 25.8442 28.4435 25.5518L28.4522 20.422V18.4399C28.4508 16.898 28.3954 15.6736 27.2173 14.5256C26.7723 14.0976 26.2445 13.7702 25.668 13.5643Z" fill="white"/>
<path id="Vector_6" d="M24.2599 13.3627C24.6415 13.3037 25.3031 13.4365 25.6677 13.5641C26.2442 13.77 26.772 14.0975 27.217 14.5254C28.395 15.6734 28.4504 16.8978 28.4519 18.4397V20.4219L28.4432 25.5516C28.4427 25.844 28.4147 27.108 28.526 27.2117C28.6937 27.3682 30.5445 27.8161 30.8441 27.8998C30.672 28.2986 30.2416 29.9507 30.0936 30.463C29.9747 30.4251 29.849 30.3932 29.7275 30.3634C28.4279 30.0456 27.1305 29.5875 25.8245 29.3007L25.8243 20.9014L25.8274 18.505C25.8286 18.2207 25.8484 17.4933 25.8164 17.2552C25.7815 16.9801 25.6615 16.7237 25.4741 16.5234C25.2164 16.2519 24.8647 16.0954 24.4951 16.0878C24.1414 16.0817 23.7997 16.2192 23.5447 16.4704C23.1861 16.8304 23.1373 17.3496 23.1324 17.8389C23.1244 18.6374 23.1309 19.4375 23.1317 20.2362L23.1352 25.5803L23.1315 43.1074C22.2854 43.0911 21.4057 43.1047 20.5572 43.1061C20.5234 39.9701 20.554 36.7759 20.5537 33.6352C19.9848 33.6557 19.5648 33.7692 19.0319 33.9547C18.5259 34.1479 18.1077 34.4647 17.7205 34.8435C16.285 36.2481 16.5156 38.2639 16.5155 40.1205L16.5149 44.0002C16.8497 44.372 17.3658 45.0758 17.6934 45.4938L20.2546 48.7686C20.7342 49.3871 21.3302 50.2068 21.8383 50.7804L21.8434 53.9462C20.9793 53.9326 20.0837 53.9462 19.2172 53.9476C19.1788 53.2622 19.2004 52.4351 19.1972 51.7341C18.6387 50.9588 17.9848 50.1635 17.3943 49.4025C16.2629 47.9331 15.1175 46.4751 13.9582 45.0287C13.8992 43.7552 13.9208 42.3505 13.9406 41.0523C13.9811 38.4007 13.5285 35.7381 15.3444 33.5449C16.9123 31.6513 18.2614 31.2055 20.5621 30.9412L20.5521 21.4821L20.5526 18.7348C20.5529 18.0304 20.5322 17.3223 20.635 16.6243C20.9053 14.7892 22.5281 13.554 24.2599 13.3627Z" fill="#256EF4"/>
<path id="Vector_7" d="M38.509 29.9958C38.9068 30.1487 39.8001 30.3743 40.2637 30.4946C41.0667 30.7029 42.2884 31.1506 43.0595 31.2592L43.0596 41.7099C43.0597 42.2693 43.1042 46.051 43.0098 46.2147C42.3921 47.2864 39.772 50.6707 39.0428 51.7333C39.0327 52.4702 39.0322 53.2072 39.0412 53.9444L38.4676 53.9407L36.4334 53.9444L36.4364 50.8194C37.2932 49.4818 38.4442 48.0638 39.3887 46.7667C39.7029 46.3354 40.1293 45.8767 40.3549 45.3933C40.4639 45.1595 40.3999 34.5776 40.4102 33.3101C39.5988 33.196 38.7599 32.7764 37.8381 32.6586L38.509 29.9958Z" fill="#256EF4"/>
<path id="Vector_8" d="M33.4533 28.5769C33.9046 28.7815 35.4211 29.1659 35.9343 29.2788C35.7357 30.1502 35.4797 31.0356 35.2415 31.8988C34.601 31.6658 33.4212 31.3631 32.7321 31.1654C32.9904 30.3386 33.1646 29.3715 33.4533 28.5769Z" fill="#256EF4"/>
</g>
<defs>
<clipPath id="clip0_0_5360">
<rect width="29.3617" height="40.8571" fill="white" transform="translate(13.9115 13.2143)"/>
</clipPath>
</defs>
</svg>
